<?xml version="1.0" standalone="no"?>
<!DOCTYPE svg PUBLIC "-//W3C//DTD SVG 20010904//EN"
 "http://www.w3.org/TR/2001/REC-SVG-20010904/DTD/svg10.dtd">
<svg version="1.0" xmlns="http://www.w3.org/2000/svg"
 width="900.000000pt" height="900.000000pt" viewBox="0 0 900.000000 900.000000"
 preserveAspectRatio="xMidYMid meet">

<g transform="translate(0.000000,900.000000) scale(0.100000,-0.100000)"
fill="#018ea9" stroke="none">
<path d="M5265 8496 c-22 -8 -78 -16 -125 -19 -47 -3 -99 -13 -115 -21 -17 -9
-37 -16 -46 -16 -8 0 -24 -7 -35 -15 -10 -8 -27 -15 -36 -15 -20 0 -177 -80
-248 -125 -105 -67 -164 -82 -206 -50 -10 8 -27 15 -36 15 -10 0 -18 4 -18 10
0 5 -11 12 -25 16 -14 3 -25 9 -25 13 0 5 -81 45 -155 76 -16 7 -47 20 -68 29
-21 9 -49 16 -63 16 -14 0 -35 5 -46 11 -38 20 -299 51 -338 40 -19 -6 -66
-13 -105 -16 -65 -6 -92 -14 -175 -53 -103 -49 -208 -146 -382 -353 -89 -106
-202 -226 -260 -275 -13 -11 -47 -31 -74 -44 -27 -12 -61 -29 -76 -36 -38 -20
-263 -19 -302 1 -15 8 -33 15 -39 15 -21 0 -118 54 -132 73 -22 31 -33 13 -45
-73 -13 -85 -44 -196 -70 -255 -44 -96 -139 -159 -315 -210 -33 -10 -75 -24
-93 -31 -18 -8 -37 -14 -42 -14 -9 0 -69 -26 -160 -68 -162 -76 -368 -238
-459 -360 -54 -73 -131 -216 -131 -243 0 -8 -4 -19 -9 -25 -15 -16 -42 -125
-52 -214 -12 -106 -2 -304 17 -342 8 -15 14 -37 14 -50 0 -13 6 -32 14 -43 13
-19 22 -90 18 -142 -1 -13 -54 -75 -133 -155 -71 -73 -136 -140 -143 -148 -38
-46 -76 -99 -76 -106 0 -4 -6 -15 -14 -23 -22 -25 -86 -148 -86 -166 0 -8 -4
-15 -8 -15 -11 0 -49 -131 -62 -211 -5 -36 -10 -95 -10 -130 0 -75 23 -206 39
-222 6 -6 11 -17 11 -25 0 -22 66 -127 160 -252 179 -240 209 -306 217 -474 5
-99 -19 -196 -64 -262 -12 -19 -23 -39 -23 -43 0 -8 -68 -74 -138 -134 -18
-15 -32 -30 -32 -35 1 -17 29 -41 95 -80 199 -118 260 -205 300 -427 7 -38 18
-86 24 -105 6 -19 11 -52 11 -74 0 -34 10 -75 42 -171 6 -16 12 -41 15 -55 5
-27 23 -71 54 -132 11 -20 19 -42 19 -47 0 -14 96 -176 140 -236 61 -83 171
-187 245 -232 57 -35 180 -93 196 -93 10 0 21 -4 24 -10 3 -5 25 -14 48 -20
23 -6 51 -15 62 -20 46 -20 212 -50 280 -50 67 0 75 -2 104 -29 18 -16 54 -76
82 -133 27 -57 55 -112 62 -123 107 -176 265 -334 392 -394 103 -48 128 -53
296 -58 142 -4 180 -2 267 16 55 12 115 21 132 21 17 0 40 5 50 10 11 6 55 15
97 19 43 5 99 15 125 21 57 14 266 8 328 -9 25 -7 58 -19 73 -27 16 -8 33 -14
38 -14 19 0 116 -74 169 -130 58 -60 130 -159 130 -178 0 -26 20 -20 36 10 9
18 47 63 84 99 68 66 145 111 246 143 66 20 212 21 278 1 27 -8 65 -15 83 -15
19 0 43 -5 54 -10 10 -6 38 -14 61 -19 24 -5 57 -14 73 -19 17 -6 57 -18 90
-27 33 -9 84 -26 113 -36 30 -10 69 -19 87 -19 18 0 49 -7 68 -15 51 -21 320
-21 361 0 15 8 36 15 45 16 9 0 39 13 66 30 28 16 61 34 75 40 30 12 222 205
241 242 8 14 30 50 50 79 53 78 139 249 139 280 0 7 7 22 15 32 8 11 15 27 15
37 0 9 8 26 18 38 14 17 39 23 147 37 72 9 157 19 190 23 34 5 70 13 82 19 12
7 35 12 50 12 16 0 38 7 49 15 10 8 28 15 38 15 18 0 35 7 146 60 69 33 151
80 167 96 8 7 17 14 21 14 14 0 91 79 118 121 57 89 86 168 105 284 24 156 27
184 29 285 1 58 6 130 11 160 5 30 12 80 15 110 14 142 90 293 181 359 65 47
136 84 178 92 22 4 65 13 95 19 30 7 77 9 103 6 56 -6 69 9 40 44 -10 13 -30
37 -44 54 -37 46 -88 131 -95 163 -4 16 -12 34 -18 42 -6 8 -11 52 -11 100 1
93 16 144 64 215 15 23 30 49 34 59 3 9 11 17 17 17 5 0 10 5 10 11 0 6 13 28
28 48 16 20 37 52 48 71 10 19 22 37 25 40 12 10 89 161 89 174 0 8 7 19 15
26 8 7 15 24 15 39 0 15 5 32 11 38 16 16 49 158 61 271 17 149 -9 346 -57
422 -5 8 -19 33 -31 55 -11 23 -27 52 -35 65 -54 94 -215 270 -319 347 -116
87 -115 86 -113 171 2 40 9 82 17 95 14 23 28 116 26 176 0 18 4 39 11 47 7 8
9 32 5 61 -3 26 -11 100 -18 163 -8 63 -19 125 -26 137 -7 12 -12 32 -12 45 0
13 -7 33 -15 44 -8 10 -15 27 -15 36 0 9 -6 23 -13 30 -8 7 -17 26 -21 41 -3
15 -11 27 -16 27 -6 0 -10 7 -10 15 0 22 -130 166 -191 211 -55 41 -134 88
-209 124 -25 11 -58 28 -73 35 -16 8 -36 15 -46 15 -9 0 -26 7 -37 15 -10 8
-25 15 -33 15 -14 0 -62 21 -166 73 -118 58 -227 162 -250 238 -4 13 -12 29
-17 35 -28 37 -49 273 -30 358 7 33 11 65 8 72 -3 7 4 20 14 29 11 10 17 22
14 26 -8 14 -68 10 -90 -6 -10 -8 -28 -15 -39 -15 -11 0 -29 -6 -40 -13 -18
-11 -52 -25 -160 -66 -40 -15 -147 7 -201 42 -44 27 -110 97 -182 192 -25 33
-49 62 -52 65 -3 3 -32 37 -64 75 -114 137 -160 180 -311 293 -5 4 -36 20 -68
36 -31 16 -60 33 -63 37 -3 5 -15 9 -27 9 -13 0 -31 6 -42 14 -11 7 -40 17
-65 21 -25 4 -64 13 -88 21 -54 18 -204 17 -257 0z m-776 -1035 l31 -29 0
-304 c0 -294 -1 -306 -20 -323 -17 -16 -52 -21 -215 -31 -106 -7 -202 -17
-214 -23 -11 -6 -38 -11 -61 -11 -23 0 -51 -5 -63 -12 -12 -6 -42 -15 -67 -19
-25 -4 -76 -19 -115 -33 -38 -15 -81 -29 -95 -32 -14 -3 -35 -12 -47 -20 -12
-8 -31 -14 -41 -14 -11 0 -25 -7 -32 -15 -7 -8 -19 -15 -27 -15 -13 0 -50 -16
-93 -42 -8 -4 -28 -15 -45 -24 -16 -8 -43 -23 -60 -34 -16 -11 -39 -24 -50
-30 -29 -15 -56 -32 -96 -62 -20 -16 -40 -28 -44 -28 -4 0 -43 -29 -86 -65
-43 -36 -81 -65 -85 -65 -8 0 -274 -266 -274 -273 0 -5 -108 -152 -144 -198
-7 -9 -23 -37 -36 -62 -13 -26 -27 -47 -31 -47 -4 0 -12 -12 -18 -27 -6 -16
-15 -35 -20 -43 -5 -8 -12 -22 -15 -30 -3 -8 -10 -22 -14 -30 -21 -37 -42 -82
-42 -90 0 -4 -16 -42 -35 -83 -19 -41 -35 -82 -35 -90 0 -8 -6 -28 -14 -44 -8
-15 -19 -48 -25 -73 -7 -25 -19 -72 -27 -105 -8 -33 -21 -97 -29 -143 -7 -45
-18 -104 -23 -130 -19 -89 -20 -446 -2 -567 27 -181 60 -338 79 -373 6 -11 11
-30 11 -41 0 -11 7 -35 14 -53 8 -18 26 -62 40 -98 14 -36 34 -84 46 -108 11
-23 25 -52 31 -65 12 -28 64 -118 107 -189 144 -233 375 -477 612 -644 82 -59
278 -174 294 -174 9 0 16 -3 16 -8 0 -4 24 -17 53 -30 28 -13 64 -30 79 -38
14 -7 33 -14 41 -14 8 0 20 -7 27 -15 7 -8 21 -15 32 -15 10 0 36 -9 58 -20
22 -11 50 -20 62 -20 13 0 32 -7 42 -15 11 -8 33 -15 49 -15 16 0 43 -6 60
-14 18 -8 55 -17 82 -19 28 -3 73 -11 100 -18 36 -9 153 -13 410 -13 316 0
366 2 405 17 25 9 56 17 70 17 14 0 36 7 50 15 14 8 36 14 50 15 14 0 38 7 54
15 15 8 38 15 49 15 24 0 97 27 230 84 217 94 435 236 636 414 70 63 236 244
291 317 19 26 40 52 46 59 6 7 14 21 18 33 4 11 17 32 29 45 12 14 33 46 47
71 13 26 28 47 32 47 5 0 8 7 8 15 0 8 16 48 36 88 20 39 43 88 51 107 8 19
21 48 29 63 8 16 14 37 14 47 0 9 6 23 14 29 8 7 18 27 21 44 4 18 13 51 21
75 8 23 14 49 14 57 0 13 -78 15 -583 15 -511 0 -585 2 -605 16 -22 15 -22 16
-22 318 0 181 4 315 10 332 6 17 25 37 45 48 32 18 78 19 950 18 853 -1 918
-2 945 -19 17 -9 30 -25 30 -34 0 -9 7 -23 16 -30 14 -12 15 -29 10 -119 -16
-262 -27 -353 -61 -520 -30 -147 -38 -178 -77 -295 -5 -16 -14 -43 -18 -60
-14 -48 -39 -119 -50 -137 -6 -10 -10 -23 -10 -29 0 -6 -7 -27 -16 -47 -9 -21
-26 -57 -37 -82 -28 -64 -96 -201 -110 -225 -7 -10 -23 -37 -37 -60 -13 -22
-30 -49 -37 -60 -7 -11 -18 -30 -24 -42 -7 -13 -16 -23 -21 -23 -4 0 -8 -7 -8
-15 0 -8 -13 -29 -28 -47 -15 -18 -40 -51 -55 -73 -15 -22 -39 -54 -54 -72
-16 -18 -36 -42 -45 -55 -37 -50 -197 -217 -278 -290 -128 -116 -393 -314
-470 -351 -8 -4 -42 -23 -75 -41 -60 -34 -206 -109 -235 -120 -8 -3 -22 -10
-30 -15 -32 -19 -108 -51 -121 -51 -8 0 -23 -7 -33 -15 -11 -8 -28 -15 -37
-15 -10 0 -30 -6 -46 -14 -15 -8 -55 -21 -88 -31 -33 -9 -73 -21 -90 -27 -16
-5 -50 -14 -75 -20 -25 -5 -54 -13 -65 -18 -11 -5 -42 -11 -70 -15 -27 -3 -64
-10 -81 -16 -16 -5 -70 -14 -120 -19 -49 -6 -116 -14 -149 -19 -78 -12 -534
-12 -605 0 -30 5 -99 13 -153 18 -54 6 -103 13 -109 17 -7 4 -44 13 -82 20
-105 19 -166 32 -216 49 -25 7 -79 24 -120 36 -41 12 -79 26 -84 31 -6 4 -19
8 -31 8 -12 0 -30 7 -41 15 -10 8 -26 15 -34 15 -19 0 -240 107 -340 164 -25
14 -54 30 -65 35 -11 5 -46 28 -78 50 -32 23 -60 41 -63 41 -9 0 -205 150
-274 209 -156 134 -349 340 -448 479 -19 26 -47 62 -63 81 -16 19 -29 38 -29
44 0 5 -13 26 -28 46 -15 20 -33 47 -40 61 -6 14 -16 32 -22 40 -34 52 -100
173 -100 185 0 7 -5 17 -11 20 -12 8 -59 111 -59 130 0 7 -6 18 -14 24 -8 6
-16 22 -19 34 -3 12 -15 47 -27 77 -12 30 -26 71 -32 90 -5 19 -14 40 -18 45
-5 6 -11 28 -15 50 -3 22 -12 56 -19 75 -18 46 -36 122 -47 190 -5 30 -14 66
-19 80 -5 14 -11 57 -14 95 -3 39 -11 93 -17 120 -16 70 -17 534 -2 605 7 30
15 84 18 120 3 36 11 83 16 105 6 22 14 60 18 85 4 25 13 65 20 90 34 126 43
157 53 185 5 17 13 47 18 67 4 21 12 43 18 50 5 7 15 29 20 48 18 58 37 107
48 121 6 8 14 25 17 39 5 21 50 108 87 170 5 8 11 22 14 30 3 8 12 24 18 35 7
10 34 52 61 93 26 40 47 75 47 78 0 2 16 27 35 54 19 27 35 54 35 60 0 5 3 10
8 10 4 1 25 26 47 56 83 114 202 246 350 385 84 79 371 296 500 379 55 35 163
96 195 111 19 9 64 30 100 47 36 18 69 32 73 32 4 0 27 8 50 18 91 40 180 71
227 81 19 4 45 13 57 19 12 7 33 12 48 12 14 0 38 6 53 14 15 7 47 17 72 21
25 4 50 11 55 15 6 5 57 14 115 20 58 6 127 16 154 21 27 5 83 9 125 10 42 1
87 5 101 9 14 4 50 8 81 9 50 1 61 -3 88 -28z m497 -11 c202 -40 250 -52 282
-66 18 -8 44 -14 58 -14 14 0 35 -5 47 -12 12 -6 35 -15 52 -19 39 -10 112
-36 152 -54 17 -8 36 -15 42 -15 6 0 19 -4 29 -9 18 -10 96 -45 122 -55 8 -3
23 -10 33 -16 26 -15 46 -26 107 -57 30 -15 73 -39 95 -53 70 -44 80 -49 105
-60 13 -6 27 -14 30 -18 8 -10 68 -52 75 -52 8 0 168 -124 238 -183 27 -23 68
-58 90 -77 39 -33 170 -163 221 -220 123 -136 326 -408 326 -437 0 -7 4 -13
10 -13 5 0 17 -15 25 -32 8 -18 37 -73 65 -123 27 -49 53 -97 56 -105 4 -8 19
-43 35 -78 16 -34 29 -65 29 -69 0 -4 8 -25 18 -47 30 -67 42 -102 76 -226 9
-30 20 -64 25 -75 41 -88 92 -390 77 -451 l-6 -24 -1058 0 c-581 0 -1063 -4
-1070 -8 -10 -7 -11 -200 -7 -963 2 -525 5 -1000 6 -1056 0 -57 -1 -116 -4
-133 -2 -16 -5 -48 -6 -70 -1 -47 -34 -85 -81 -95 -16 -3 -34 -13 -41 -21 -6
-8 -26 -14 -43 -14 -17 -1 -42 -7 -56 -15 -14 -8 -39 -14 -56 -15 -17 0 -49
-6 -70 -13 -22 -8 -75 -17 -120 -20 -45 -3 -93 -12 -108 -18 -20 -9 -32 -9
-51 -1 l-25 12 0 2548 c0 1402 3 2552 7 2555 13 14 174 6 269 -13z m-541 -877
c22 -10 38 -27 43 -43 4 -14 7 -746 7 -1628 0 -1576 0 -1604 -19 -1618 -16
-11 -70 -14 -273 -14 -234 0 -257 2 -293 20 -45 23 -51 32 -80 121 -12 35 -28
76 -36 91 -8 14 -14 36 -14 47 0 12 -6 32 -14 44 -8 12 -17 38 -21 57 -4 19
-11 40 -15 45 -4 6 -11 26 -15 45 -4 19 -14 44 -21 55 -8 11 -14 33 -14 49 0
16 -6 37 -13 45 -8 9 -28 63 -46 121 -18 58 -39 120 -47 138 -8 18 -14 38 -14
45 0 10 -22 72 -51 142 -4 11 -12 36 -18 55 -5 19 -14 49 -20 65 -30 85 -71
208 -92 275 -12 41 -27 81 -32 88 -6 7 -13 29 -18 50 -9 44 -70 218 -87 249
-7 12 -12 33 -12 47 0 41 -23 30 -48 -21 -12 -27 -26 -55 -31 -63 -38 -68 -86
-203 -121 -340 -21 -84 -32 -255 -26 -409 5 -145 16 -211 51 -322 8 -26 15
-52 15 -59 0 -7 6 -26 14 -43 25 -60 56 -142 56 -151 0 -4 29 -57 65 -116 36
-59 65 -112 65 -118 0 -5 7 -12 15 -16 8 -3 15 -10 15 -17 0 -14 55 -85 96
-124 18 -16 35 -42 38 -56 5 -24 2 -27 -32 -33 -20 -3 -170 -6 -333 -6 -294 0
-297 0 -353 25 -31 14 -56 31 -56 39 0 7 -7 19 -15 26 -9 7 -27 38 -41 69 -57
124 -72 158 -93 208 -11 28 -21 58 -21 66 0 8 -6 20 -14 26 -8 6 -16 26 -19
44 -5 31 -13 62 -43 172 -42 158 -49 226 -48 480 1 174 5 262 14 290 7 22 16
67 20 100 10 78 29 171 45 215 7 19 24 71 39 115 40 125 52 155 64 167 7 7 12
19 12 27 0 18 38 99 51 107 5 3 9 13 9 22 0 10 15 40 33 68 19 28 37 58 40 68
11 27 111 177 177 265 72 95 110 134 180 180 l55 36 204 0 203 0 34 -40 c19
-22 37 -51 40 -65 3 -14 12 -40 20 -58 8 -18 14 -46 14 -61 0 -16 7 -42 15
-57 8 -16 15 -43 15 -59 0 -17 6 -39 14 -50 7 -11 18 -40 24 -65 26 -110 40
-158 51 -178 6 -11 11 -33 11 -49 0 -15 7 -37 15 -47 8 -11 15 -33 15 -49 0
-15 5 -38 12 -50 6 -12 15 -38 19 -57 4 -19 12 -50 18 -67 6 -18 16 -48 22
-65 6 -18 18 -59 26 -90 9 -32 19 -58 24 -58 4 0 5 343 2 763 -3 420 -3 775 1
790 5 22 13 27 54 32 26 4 61 11 77 16 17 4 68 13 115 18 100 12 228 35 237
45 10 9 19 8 58 -11z"/>
<path d="M5366 6583 c-3 -3 -6 -253 -5 -554 l0 -549 562 -2 c309 -2 572 -2
584 0 47 7 31 76 -38 173 -10 15 -19 30 -19 35 0 7 -8 19 -136 190 -81 110
-276 312 -364 378 -30 23 -59 46 -65 53 -14 16 -204 143 -215 143 -4 0 -10 4
-12 9 -5 12 -219 117 -255 124 -17 3 -33 3 -37 0z"/>
</g>
</svg>
